<?xml version="1.0" encoding="UTF-8"?>
<level>
  <owner>stolbitsa</owner>
  <repo>merry-christmas-1</repo>
  <version>v1.0.7</version>
  <next number="1" owner="stolbitsa" repo="wellerman"/>
  <readme>
    <ru>a52c9af87978d66a4cc82cf0e20316f3f3a6bfaa01365bb85c337ca0d12bfaa6</ru>
    <en>ea11215d973b7a750c679d650cb2604c86091e43d8a542820540a6e9e14fad3c</en>
  </readme>
  <license>b1b99f5538d1fd3702219bff50c665196dfa42f6ee755c37fe41a6178d6bc6e5</license>
  <exercise number="1">
    <scale>major</scale>
    <bpm>122</bpm>
    <lowestNote>5</lowestNote>
    <tonalities>8</tonalities>
    <video name="20-merry-christmas-1.mp4" size="1240895" type="video/mp4" volume="1">87bd0821f7c2cf4b1fb97731793d68225dee546ed8aec492786afe9ab40e97a3</video>
    <notes>
      <note number="1" values="5" ticks="52" durationTicks="86" ppq="96" velocity="0.843"/>
      <note number="2" values="18" ticks="147" durationTicks="76" ppq="96" velocity="0.739"/>
      <note number="3" values="18" ticks="244" durationTicks="59" ppq="96" velocity="0.719"/>
      <note number="4" values="28" ticks="310" durationTicks="27" ppq="96" velocity="0.719"/>
      <note number="5" values="18" ticks="342" durationTicks="57" ppq="96" velocity="0.719"/>
      <note number="6" values="7" ticks="404" durationTicks="33" ppq="96" velocity="0.719"/>
      <note number="7" values="6" ticks="438" durationTicks="78" ppq="96" velocity="0.719"/>
      <note number="8" values="6" ticks="532" durationTicks="95" ppq="96" velocity="0.719"/>
    </notes>
  </exercise>
  <exercise number="2">
    <scale>major</scale>
    <bpm>122</bpm>
    <lowestNote>5</lowestNote>
    <tonalities>8</tonalities>
    <video name="20-merry-christmas-2.mp4" size="1510545" type="video/mp4" volume="1">958aacca55697a0f1d1cd0ea64e3e0a40a54b5f9be0deb813e89f451cc27c326</video>
    <notes>
      <note number="1" values="6" ticks="46" durationTicks="86" ppq="96" velocity="0.843"/>
      <note number="2" values="28" ticks="141" durationTicks="77" ppq="96" velocity="0.739"/>
      <note number="3" values="28" ticks="238" durationTicks="59" ppq="96" velocity="0.719"/>
      <note number="4" values="38" ticks="304" durationTicks="27" ppq="96" velocity="0.737"/>
      <note number="5" values="28" ticks="336" durationTicks="57" ppq="96" velocity="0.719"/>
      <note number="6" values="18" ticks="398" durationTicks="33" ppq="96" velocity="0.719"/>
      <note number="7" values="7" ticks="432" durationTicks="95" ppq="96" velocity="0.719"/>
      <note number="8" values="5" ticks="526" durationTicks="95" ppq="96" velocity="0.719"/>
    </notes>
  </exercise>
  <exercise number="3">
    <scale>major</scale>
    <bpm>122</bpm>
    <lowestNote>5</lowestNote>
    <tonalities>8</tonalities>
    <video name="20-merry-christmas-3.mp4" size="1641233" type="video/mp4" volume="1">63af458b8fd678e0343ebc92e96066fc89e0254a5cff5306971304ba97b5fc33</video>
    <notes>
      <note number="1" values="5" ticks="48" durationTicks="86" ppq="96" velocity="0.843"/>
      <note number="2" values="38" ticks="143" durationTicks="77" ppq="96" velocity="0.739"/>
      <note number="3" values="38" ticks="240" durationTicks="59" ppq="96" velocity="0.719"/>
      <note number="4" values="48" ticks="306" durationTicks="27" ppq="96" velocity="0.719"/>
      <note number="5" values="38" ticks="338" durationTicks="57" ppq="96" velocity="0.719"/>
      <note number="6" values="28" ticks="400" durationTicks="33" ppq="96" velocity="0.719"/>
      <note number="7" values="18" ticks="434" durationTicks="95" ppq="96" velocity="0.719"/>
      <note number="8" values="6" ticks="528" durationTicks="95" ppq="96" velocity="0.719"/>
    </notes>
  </exercise>
  <exercise number="4">
    <scale>major</scale>
    <bpm>122</bpm>
    <lowestNote>5</lowestNote>
    <tonalities>8</tonalities>
    <video name="20-merry-christmas-4.mp4" size="1504804" type="video/mp4" volume="1">b0ba7f566871338aafc13c2a6fa4006fa3d776739059a0364aa5acbddf8ba1d6</video>
    <notes>
      <note number="1" values="5" ticks="49" durationTicks="44" ppq="96" velocity="0.843"/>
      <note number="2" values="5" ticks="112" durationTicks="34" ppq="96" velocity="0.739"/>
      <note number="3" values="6" ticks="147" durationTicks="95" ppq="96" velocity="0.719"/>
      <note number="4" values="28" ticks="244" durationTicks="93" ppq="96" velocity="0.719"/>
      <note number="5" values="7" ticks="340" durationTicks="96" ppq="96" velocity="0.719"/>
      <note number="6" values="18" ticks="435" durationTicks="172" ppq="96" velocity="0.719"/>
    </notes>
  </exercise>
  <exercise number="5">
    <scale>major</scale>
    <bpm>122</bpm>
    <lowestNote>5</lowestNote>
    <tonalities>9</tonalities>
    <video name="20-merry-christmas-5.mp4" size="1422943" type="video/mp4" volume="1">f1fcfcf6b18c0b3fddde4ba7decf62b1d50c6629c770d4a13df9592f7a1fc4cd</video>
    <notes>
      <note number="1" values="5" ticks="92" durationTicks="86" ppq="96" velocity="0.843"/>
      <note number="2" values="18" ticks="187" durationTicks="81" ppq="96" velocity="0.732"/>
      <note number="3" values="18" ticks="284" durationTicks="59" ppq="96" velocity="0.717"/>
      <note number="4" values="28" ticks="350" durationTicks="27" ppq="96" velocity="0.717"/>
      <note number="5" values="18" ticks="382" durationTicks="57" ppq="96" velocity="0.717"/>
      <note number="6" values="7" ticks="444" durationTicks="33" ppq="96" velocity="0.717"/>
      <note number="7" values="6" ticks="478" durationTicks="75" ppq="96" velocity="0.717"/>
      <note number="8" values="6" ticks="572" durationTicks="95" ppq="96" velocity="0.717"/>
    </notes>
  </exercise>
  <exercise number="6">
    <scale>major</scale>
    <bpm>122</bpm>
    <lowestNote>5</lowestNote>
    <tonalities>9</tonalities>
    <video name="20-merry-christmas-6.mp4" size="1207169" type="video/mp4" volume="1">6ba017a1c3fc4835c5ddcea8aad922eeb4f6e70532c64f56ec945ff13fdc12ac</video>
    <notes>
      <note number="1" values="6" ticks="44" durationTicks="86" ppq="96" velocity="0.843"/>
      <note number="2" values="28" ticks="139" durationTicks="79" ppq="96" velocity="0.732"/>
      <note number="3" values="28" ticks="236" durationTicks="59" ppq="96" velocity="0.717"/>
      <note number="4" values="38" ticks="302" durationTicks="27" ppq="96" velocity="0.732"/>
      <note number="5" values="28" ticks="334" durationTicks="57" ppq="96" velocity="0.717"/>
      <note number="6" values="18" ticks="396" durationTicks="33" ppq="96" velocity="0.717"/>
      <note number="7" values="7" ticks="430" durationTicks="95" ppq="96" velocity="0.717"/>
      <note number="8" values="5" ticks="524" durationTicks="95" ppq="96" velocity="0.717"/>
    </notes>
  </exercise>
  <exercise number="7">
    <scale>major</scale>
    <bpm>122</bpm>
    <lowestNote>5</lowestNote>
    <tonalities>9</tonalities>
    <video name="20-merry-christmas-7.mp4" size="1283211" type="video/mp4" volume="1">4e3fca5f0ec1f5c5abb5bbe4dc04e0b7cba63b22e9818a0942d3d5ac401b7ff8</video>
    <notes>
      <note number="1" values="5" ticks="42" durationTicks="86" ppq="96" velocity="0.843"/>
      <note number="2" values="38" ticks="137" durationTicks="74" ppq="96" velocity="0.732"/>
      <note number="3" values="38" ticks="234" durationTicks="59" ppq="96" velocity="0.717"/>
      <note number="4" values="48" ticks="300" durationTicks="27" ppq="96" velocity="0.717"/>
      <note number="5" values="38" ticks="332" durationTicks="57" ppq="96" velocity="0.717"/>
      <note number="6" values="28" ticks="394" durationTicks="33" ppq="96" velocity="0.717"/>
      <note number="7" values="18" ticks="428" durationTicks="95" ppq="96" velocity="0.717"/>
      <note number="8" values="6" ticks="522" durationTicks="95" ppq="96" velocity="0.717"/>
    </notes>
  </exercise>
  <exercise number="8">
    <scale>major</scale>
    <bpm>122</bpm>
    <lowestNote>5</lowestNote>
    <tonalities>9</tonalities>
    <video name="20-merry-christmas-8.mp4" size="1363661" type="video/mp4" volume="1">8195f93c0755eff30138860ab193d03b939fbb69c623ec774c62e69013516dd3</video>
    <notes>
      <note number="1" values="5" ticks="47" durationTicks="44" ppq="96" velocity="0.843"/>
      <note number="2" values="5" ticks="110" durationTicks="34" ppq="96" velocity="0.732"/>
      <note number="3" values="6" ticks="145" durationTicks="95" ppq="96" velocity="0.717"/>
      <note number="4" values="28" ticks="242" durationTicks="93" ppq="96" velocity="0.717"/>
      <note number="5" values="7" ticks="338" durationTicks="96" ppq="96" velocity="0.717"/>
      <note number="6" values="18" ticks="433" durationTicks="120" ppq="96" velocity="0.717"/>
    </notes>
  </exercise>
</level>
